<svg xmlns="http://www.w3.org/2000/svg" version="1.1" xmlns:xlink="http://www.w3.org/1999/xlink" xmlns:svgjs="http://svgjs.dev/svgjs" width="1000" height="1000" viewBox="0 0 1000 1000"><rect width="1000" height="1000" fill="#000000"></rect><g transform="matrix(0.7,0,0,0.7,149.57576082728167,366.39601318319467)"><svg viewBox="0 0 396 151" data-background-color="#ffffff" preserveAspectRatio="xMidYMid meet" height="381" width="1000" xmlns="http://www.w3.org/2000/svg" xmlns:xlink="http://www.w3.org/1999/xlink"><g id="tight-bounds" transform="matrix(1,0,0,1,0.23999879619066178,0.1438020597585421)"><svg viewBox="0 0 395.52 150.71239588048292" height="150.71239588048292" width="395.52"><g><svg viewBox="0 0 527.4915811373886 200.99999999999997" height="150.71239588048292" width="395.52"><g><rect width="4.143452821621622" height="200.99999999999997" x="185.06896074819937" y="0" fill="#ffffff" opacity="1" stroke-width="0" stroke="transparent" fill-opacity="1" class="rect-o-0" data-fill-palette-color="primary" rx="1%" id="o-0" data-palette-color="#d9bca9"></rect></g><g transform="matrix(1,0,0,1,200.05914870495613,0.4999999999999858)"><svg viewBox="0 0 327.43243243243245 200" height="200" width="327.43243243243245"><g id="textblocktransform"><svg viewBox="0 0 327.43243243243245 200" height="200" width="327.43243243243245" id="textblock"><g><svg viewBox="0 0 327.43243243243245 200" height="200" width="327.43243243243245"><g transform="matrix(1,0,0,1,0,0)"><svg width="327.43243243243245" viewBox="1 -33.5 246.1999969482422 145" height="200" data-palette-color="#d9bca9"><svg></svg><svg></svg><svg></svg><svg></svg><g class="wordmark-text-0" data-fill-palette-color="primary" id="text-0"><path xmlns="http://www.w3.org/2000/svg" d="M25.4-33h6.55l-14.7 15.9-0.6 0.05-8.55 9.2-0.5-5.85zM4.9-33h5.35v33h-5.35zM14.1-18.2l4.25-3 13.9 21.2h-6.3zM38.25-33h13.45c3.533 0 6.343 0.883 8.43 2.65 2.08 1.767 3.12 4.15 3.12 7.15v0c0 3.1-1.04 5.49-3.12 7.17-2.087 1.687-4.897 2.53-8.43 2.53v0l-0.5 0.3h-7.65v13.2h-5.3zM43.55-17.65h7.75c2.167 0 3.777-0.443 4.83-1.33 1.047-0.88 1.57-2.237 1.57-4.07v0c0-1.8-0.523-3.15-1.57-4.05-1.053-0.9-2.663-1.35-4.83-1.35v0h-7.75zM49.85-14.45l4.6-2.1 10.75 16.55h-6.15zM71.85-33h5.35v33h-5.35zM98.25-33.5v0c2.967 0 5.533 0.557 7.7 1.67 2.167 1.12 4 2.763 5.5 4.93v0l-3.6 3.45c-1.267-1.933-2.69-3.327-4.27-4.18-1.587-0.847-3.463-1.27-5.63-1.27v0c-1.6 0-2.917 0.217-3.95 0.65-1.033 0.433-1.79 1.007-2.27 1.72-0.487 0.72-0.73 1.53-0.73 2.43v0c0 1.033 0.36 1.933 1.08 2.7 0.713 0.767 2.053 1.367 4.02 1.8v0l6.7 1.5c3.2 0.7 5.467 1.767 6.8 3.2 1.333 1.433 2 3.25 2 5.45v0c0 2.033-0.55 3.8-1.65 5.3-1.1 1.5-2.623 2.65-4.57 3.45-1.953 0.8-4.247 1.2-6.88 1.2v0c-2.333 0-4.433-0.3-6.3-0.9-1.867-0.6-3.5-1.417-4.9-2.45-1.4-1.033-2.55-2.217-3.45-3.55v0l3.7-3.7c0.7 1.167 1.583 2.207 2.65 3.12 1.067 0.92 2.31 1.63 3.73 2.13 1.413 0.5 2.987 0.75 4.72 0.75v0c1.533 0 2.86-0.183 3.98-0.55 1.113-0.367 1.963-0.91 2.55-1.63 0.58-0.713 0.87-1.57 0.87-2.57v0c0-0.967-0.323-1.817-0.97-2.55-0.653-0.733-1.863-1.3-3.63-1.7v0l-7.25-1.65c-2-0.433-3.65-1.05-4.95-1.85-1.3-0.8-2.267-1.777-2.9-2.93-0.633-1.147-0.95-2.437-0.95-3.87v0c0-1.867 0.51-3.56 1.53-5.08 1.013-1.513 2.487-2.73 4.42-3.65 1.933-0.913 4.233-1.37 6.9-1.37zM140.75-33h5.4v33h-5.4zM119.1-33h5.35v33h-5.35zM121.8-19h21.65v4.6h-21.65zM178-33h4.95v33h-6.35l-12.75-20.8-3.2-5.85h-0.05l0.2 5.35v21.3h-4.9v-33h6.3l12.7 20.75 3.25 5.95h0.05l-0.2-5.4zM194.3 0h-5.5l12.45-33h6.4l12.45 33h-5.65l-8.5-23.6-1.5-4.75h-0.15l-1.4 4.65zM213.3-8.65h-17.85v-4.35h17.85z" fill="#ffffff" fill-rule="nonzero" stroke="none" stroke-width="1" stroke-linecap="butt" stroke-linejoin="miter" stroke-miterlimit="10" stroke-dasharray="" stroke-dashoffset="0" font-family="none" font-weight="none" font-size="none" text-anchor="none" style="mix-blend-mode: normal" data-fill-palette-color="primary" opacity="1"></path><path xmlns="http://www.w3.org/2000/svg" d="M1.5 4h27.95v4.6h-11.3v28.4h-5.35v-28.4h-11.3zM35.85 4h5.35v33h-5.35zM76.95 4h7.8v33h-4.95v-19.1l0.4-9.1h-0.05l-10.05 28.2h-4.45l-10.05-28.2h-0.05l0.4 9.1v19.1h-4.95v-33h7.95l6.65 19.1 2.3 7.85h0.1l2.35-7.85zM107.75 37h-13.2v-33h13c3.967 0 6.867 0.8 8.7 2.4 1.833 1.6 2.75 3.817 2.75 6.65v0c0 1.733-0.5 3.273-1.5 4.62-1 1.353-2.467 2.213-4.4 2.58v0 0.05c2.133 0.333 3.793 1.207 4.98 2.62 1.18 1.42 1.77 3.063 1.77 4.93v0c0 2.833-1.033 5.067-3.1 6.7-2.067 1.633-5.067 2.45-9 2.45zM99.8 22.65v9.9h8.2c2.1 0 3.677-0.433 4.73-1.3 1.047-0.867 1.57-2.083 1.57-3.65v0c0-1.567-0.523-2.783-1.57-3.65-1.053-0.867-2.63-1.3-4.73-1.3v0zM99.8 8.5v9.7h7.35c4.2 0 6.3-1.617 6.3-4.85v0c0-3.233-2.1-4.85-6.3-4.85v0zM152.25 37h-24.6v-33h23.9v4.6h-18.55v9.5h14.5v4.5h-14.5v9.8h19.25zM159.45 4h13.45c3.533 0 6.343 0.883 8.43 2.65 2.08 1.767 3.12 4.15 3.12 7.15v0c0 3.1-1.04 5.49-3.12 7.17-2.087 1.687-4.897 2.53-8.43 2.53v0l-0.5 0.3h-7.65v13.2h-5.3zM164.75 19.35h7.75c2.167 0 3.777-0.443 4.83-1.33 1.047-0.88 1.57-2.237 1.57-4.07v0c0-1.8-0.523-3.15-1.57-4.05-1.053-0.9-2.663-1.35-4.83-1.35v0h-7.75zM171.05 22.55l4.6-2.1 10.75 16.55h-6.15z" fill="#ffffff" fill-rule="nonzero" stroke="none" stroke-width="1" stroke-linecap="butt" stroke-linejoin="miter" stroke-miterlimit="10" stroke-dasharray="" stroke-dashoffset="0" font-family="none" font-weight="none" font-size="none" text-anchor="none" style="mix-blend-mode: normal" data-fill-palette-color="primary" opacity="1"></path><path xmlns="http://www.w3.org/2000/svg" d="M6.5 74h-5.5l12.45-33h6.4l12.45 33h-5.65l-8.5-23.6-1.5-4.75h-0.15l-1.4 4.65zM25.5 65.35h-17.85v-4.35h17.85zM60.25 41h4.95v33h-6.35l-12.75-20.8-3.2-5.85h-0.05l0.2 5.35v21.3h-4.9v-33h6.3l12.7 20.75 3.25 5.95h0.05l-0.2-5.4zM74.95 41h11.65c5.167 0 9.193 1.423 12.08 4.27 2.88 2.853 4.32 6.93 4.32 12.23v0c0 5.3-1.44 9.373-4.32 12.22-2.887 2.853-6.913 4.28-12.08 4.28v0h-11.65zM80.3 69.45h6.3c3.5 0 6.177-1.043 8.03-3.13 1.847-2.08 2.77-5.02 2.77-8.82v0c0-3.8-0.923-6.743-2.77-8.83-1.853-2.08-4.53-3.12-8.03-3.12v0h-6.3z" fill="#ffffff" fill-rule="nonzero" stroke="none" stroke-width="1" stroke-linecap="butt" stroke-linejoin="miter" stroke-miterlimit="10" stroke-dasharray="" stroke-dashoffset="0" font-family="none" font-weight="none" font-size="none" text-anchor="none" style="mix-blend-mode: normal" data-fill-palette-color="primary" opacity="1"></path><path xmlns="http://www.w3.org/2000/svg" d="M4.9 78h12.7c2.367 0 4.41 0.417 6.13 1.25 1.713 0.833 3.053 2.017 4.02 3.55 0.967 1.533 1.45 3.383 1.45 5.55v0c0 2.133-0.483 3.973-1.45 5.52-0.967 1.553-2.307 2.747-4.02 3.58-1.72 0.833-3.763 1.25-6.13 1.25v0h-7.35v12.3h-5.35zM10.25 94.1h6.5c2.367 0 4.11-0.493 5.23-1.48 1.113-0.98 1.67-2.403 1.67-4.27v0c0-1.9-0.557-3.343-1.67-4.33-1.12-0.98-2.863-1.47-5.23-1.47v0h-6.5zM41.6 78v28.4h18.2v4.6h-23.55v-33zM84.7 78h6l-11.8 20.35v12.65h-5.35v-12.65l-11.75-20.35h5.95l5.9 10.65 2.6 4.9 2.6-4.9zM108.6 111h-6.35l-9.7-33h5.65l7.4 28.35 7.2-28.35h5.5l7.25 28.4 7.35-28.4h5.45l-9.65 33h-6.3l-5.25-19.8-1.65-7.6h-0.05l-1.65 7.6zM158.35 77.5v0c3.2 0 5.967 0.683 8.3 2.05 2.333 1.367 4.133 3.317 5.4 5.85 1.267 2.533 1.9 5.567 1.9 9.1v0c0 3.533-0.633 6.567-1.9 9.1-1.267 2.533-3.067 4.483-5.4 5.85-2.333 1.367-5.1 2.05-8.3 2.05v0c-3.167 0-5.917-0.683-8.25-2.05-2.333-1.367-4.133-3.317-5.4-5.85-1.267-2.533-1.9-5.567-1.9-9.1v0c0-3.533 0.633-6.567 1.9-9.1 1.267-2.533 3.067-4.483 5.4-5.85 2.333-1.367 5.083-2.05 8.25-2.05zM158.35 82.15v0c-2.067 0-3.84 0.483-5.32 1.45-1.487 0.967-2.63 2.367-3.43 4.2-0.8 1.833-1.2 4.067-1.2 6.7v0c0 2.6 0.4 4.823 1.2 6.67 0.8 1.853 1.943 3.263 3.43 4.23 1.48 0.967 3.253 1.45 5.32 1.45v0c2.1 0 3.89-0.483 5.37-1.45 1.487-0.967 2.63-2.377 3.43-4.23 0.8-1.847 1.2-4.07 1.2-6.67v0c0-2.633-0.4-4.867-1.2-6.7-0.8-1.833-1.943-3.233-3.43-4.2-1.48-0.967-3.27-1.45-5.37-1.45zM195.6 77.5v0c3.2 0 5.967 0.683 8.3 2.05 2.333 1.367 4.133 3.317 5.4 5.85 1.267 2.533 1.9 5.567 1.9 9.1v0c0 3.533-0.633 6.567-1.9 9.1-1.267 2.533-3.067 4.483-5.4 5.85-2.333 1.367-5.1 2.05-8.3 2.05v0c-3.167 0-5.917-0.683-8.25-2.05-2.333-1.367-4.133-3.317-5.4-5.85-1.267-2.533-1.9-5.567-1.9-9.1v0c0-3.533 0.633-6.567 1.9-9.1 1.267-2.533 3.067-4.483 5.4-5.85 2.333-1.367 5.083-2.05 8.25-2.05zM195.6 82.15v0c-2.067 0-3.84 0.483-5.32 1.45-1.487 0.967-2.63 2.367-3.43 4.2-0.8 1.833-1.2 4.067-1.2 6.7v0c0 2.6 0.4 4.823 1.2 6.67 0.8 1.853 1.943 3.263 3.43 4.23 1.48 0.967 3.253 1.45 5.32 1.45v0c2.1 0 3.89-0.483 5.37-1.45 1.487-0.967 2.63-2.377 3.43-4.23 0.8-1.847 1.2-4.07 1.2-6.67v0c0-2.633-0.4-4.867-1.2-6.7-0.8-1.833-1.943-3.233-3.43-4.2-1.48-0.967-3.27-1.45-5.37-1.45zM219.15 78h11.65c5.167 0 9.193 1.423 12.08 4.27 2.88 2.853 4.32 6.93 4.32 12.23v0c0 5.3-1.44 9.373-4.32 12.22-2.887 2.853-6.913 4.28-12.08 4.28v0h-11.65zM224.5 106.45h6.3c3.5 0 6.173-1.043 8.02-3.13 1.853-2.08 2.78-5.02 2.78-8.82v0c0-3.8-0.927-6.743-2.78-8.83-1.847-2.08-4.52-3.12-8.02-3.12v0h-6.3z" fill="#ffffff" fill-rule="nonzero" stroke="none" stroke-width="1" stroke-linecap="butt" stroke-linejoin="miter" stroke-miterlimit="10" stroke-dasharray="" stroke-dashoffset="0" font-family="none" font-weight="none" font-size="none" text-anchor="none" style="mix-blend-mode: normal" data-fill-palette-color="primary" opacity="1"></path></g></svg></g></svg></g></svg></g></svg></g><g transform="matrix(1,0,0,1,0,0.4999999999999858)"><svg viewBox="0 0 174.22222561306424 200" height="200" width="174.22222561306424"><g><svg xmlns="http://www.w3.org/2000/svg" xmlns:xlink="http://www.w3.org/1999/xlink" version="1.1" x="0" y="0" viewBox="10.100000381469727 5.199999809265137 78.4000015258789 90" enable-background="new 0 0 100 100" xml:space="preserve" height="200" width="174.22222561306424" class="icon-icon-0" data-fill-palette-color="accent" id="icon-0"><polygon fill-rule="evenodd" clip-rule="evenodd" fill="#ffffff" points="88.5,28.2 68.4,59.9 68.5,22.3 " data-fill-palette-color="accent"></polygon><polygon fill-rule="evenodd" clip-rule="evenodd" fill="#ffffff" points="49.8,5.2 67.2,38.5 34.7,19.6 " data-fill-palette-color="accent"></polygon><polygon fill-rule="evenodd" clip-rule="evenodd" fill="#ffffff" points="67.8,38.3 67.8,22.3 60.8,24.5 " data-fill-palette-color="accent"></polygon><polygon fill-rule="evenodd" clip-rule="evenodd" fill="#ffffff" points="88.2,73.2 50.6,71.7 83.2,52.9 " data-fill-palette-color="accent"></polygon><polygon fill-rule="evenodd" clip-rule="evenodd" fill="#ffffff" points="69.1,60.3 82.8,52.3 77.4,47.4 " data-fill-palette-color="accent"></polygon><polygon fill-rule="evenodd" clip-rule="evenodd" fill="#ffffff" points="48.7,95.2 31.5,61.9 63.9,80.9 " data-fill-palette-color="accent"></polygon><polygon fill-rule="evenodd" clip-rule="evenodd" fill="#ffffff" points="50.5,72.2 64.2,80.2 65.8,73.1 " data-fill-palette-color="accent"></polygon><polygon fill-rule="evenodd" clip-rule="evenodd" fill="#ffffff" points="10.1,72 30.5,40.4 30.1,78 " data-fill-palette-color="accent"></polygon><polygon fill-rule="evenodd" clip-rule="evenodd" fill="#ffffff" points="30.9,62.1 30.8,78 37.8,75.8 " data-fill-palette-color="accent"></polygon><polygon fill-rule="evenodd" clip-rule="evenodd" fill="#ffffff" points="11,27 48.5,28.9 15.8,47.3 " data-fill-palette-color="accent"></polygon><polygon fill-rule="evenodd" clip-rule="evenodd" fill="#ffffff" points="30,40.1 16.1,47.9 21.5,52.9 " data-fill-palette-color="accent"></polygon><polygon fill-rule="evenodd" clip-rule="evenodd" fill="#ffffff" points="48.2,28.3 34.5,20.2 32.9,27.4 " data-fill-palette-color="accent"></polygon></svg></g></svg></g></svg></g><defs></defs></svg><rect width="395.52" height="150.71239588048292" fill="none" stroke="none" visibility="hidden"></rect></g></svg></g></svg>